<?xml version="1.0" standalone="no"?>
<!DOCTYPE svg PUBLIC "-//W3C//DTD SVG 20010904//EN"
 "http://www.w3.org/TR/2001/REC-SVG-20010904/DTD/svg10.dtd">
<svg version="1.0" xmlns="http://www.w3.org/2000/svg"
 width="700.000000pt" height="700.000000pt" viewBox="0 0 700.000000 700.000000"
 preserveAspectRatio="xMidYMid meet">
<metadata>
Created by potrace 1.11, written by Peter Selinger 2001-2013
</metadata>
<g transform="translate(0.000000,700.000000) scale(0.100000,-0.100000)"
fill="#000000" stroke="none">
<path d="M1177 5828 c-9 -5 -12 -148 -11 -577 0 -314 3 -573 6 -577 8 -7 1148
-7 1156 0 4 5 7 984 3 1131 l-1 30 -571 0 c-314 0 -576 -3 -582 -7z"/>
<path d="M2927 5828 c-9 -5 -12 -146 -11 -570 1 -309 2 -570 3 -578 1 -13 71
-15 577 -13 369 1 579 5 583 11 4 8 6 1125 2 1152 -1 8 -1141 6 -1154 -2z"/>
<path d="M4672 5830 c-4 -3 -7 -265 -7 -583 l0 -577 60 0 c384 -4 1097 -1
1102 4 8 8 7 1145 -1 1153 -8 8 -1144 11 -1154 3z"/>
<path d="M1171 4075 c-5 -7 -7 -1125 -2 -1155 1 -8 1150 -4 1158 3 8 9 8 1145
-1 1154 -11 11 -1147 9 -1155 -2z"/>
<path d="M2926 4074 c-12 -12 -15 -1138 -3 -1150 9 -9 1135 -11 1150 -2 14 8
16 1147 2 1156 -18 12 -1138 8 -1149 -4z"/>
<path d="M4672 4075 c-10 -16 -8 -1146 2 -1153 6 -3 268 -6 583 -6 l573 -1 1
25 c1 32 1 1133 0 1140 -2 10 -1153 5 -1159 -5z"/>
<path d="M1169 2320 c-2 -47 -4 -1128 -1 -1140 3 -13 73 -15 574 -13 314 1
575 4 582 6 8 3 11 158 9 578 -1 316 -2 576 -2 579 -1 3 -262 5 -581 5 -509 0
-580 -2 -581 -15z"/>
<path d="M2922 2325 c-3 -5 -6 -267 -6 -582 l-1 -573 45 -1 c63 0 980 0 1060
0 l65 1 -1 575 c0 316 -4 578 -8 582 -11 11 -1147 10 -1154 -2z"/>
<path d="M4671 2320 c-5 -11 -7 -1002 -2 -1130 l1 -25 580 0 c573 0 580 0 581
20 1 26 1 1127 0 1140 -1 7 -200 10 -577 10 -502 0 -577 -2 -583 -15z"/>
</g>
</svg>
